<svg width="1170" height="529" viewBox="0 0 1170 529" fill="none" xmlns="http://www.w3.org/2000/svg">
<path d="M136.018 0V329.711H216.873V528.141H0V0H136.018Z" fill="black"/>
<path d="M512.694 0L551.988 528.141H404.635V422.513H384.233V528.141H236.88L276.174 0H512.694ZM404.635 296.514V105.628H384.233V296.514H404.635Z" fill="black"/>
<path d="M571.906 0H815.983L861.322 45.2693V207.484L825.051 251.999L861.322 296.514V482.872L815.983 528.141H571.906V0ZM706.824 105.628V212.766H727.439V105.628H706.824ZM706.824 296.514V422.513H727.439V296.514H706.824Z" fill="black"/>
<path d="M880.584 0H1124.66L1170 45.2693V207.484L1133.73 251.999L1170 296.514V482.872L1124.66 528.141H880.584V0ZM1015.5 105.628V212.766H1036.12V105.628H1015.5ZM1015.5 296.514V422.513H1036.12V296.514H1015.5Z" fill="black"/>
</svg>
